<svg width="512" height="512" xmlns="http://www.w3.org/2000/svg">
    <g transform="rotate(45,256,256)">
        <ellipse ry="50" rx="50" id="svg_11" cy="64.6" cx="250.9" fill="#000000"/>
        <rect id="svg_1" height="237" width="100" y="62.9" x="201.1" fill="#000000"/>

        <rect id="svg_12" height="30" width="100" y="304.8" x="201.1" fill="#000000"/>
        <rect transform="rotate(45,223.5,335.6)" id="svg_13" height="30" width="32" y="320.6" x="207.5" fill="#000000"/>
        <rect transform="rotate(-45,279.2,335.3)" id="svg_14" height="30" width="32" y="320.3" x="263.2" fill="#000000"/>
        <rect id="svg_15" height="40.2" width="54.4" y="317.3" x="224.3" fill="#000000"/>
    </g>
    <g transform="rotate(90,220,330)">
        <rect transform="rotate(25,250.1,453.8)" id="svg_16" height="28.3" width="27" y="439.6" x="236.6" fill="#000000"/>
        <rect transform="rotate(60,268.9,469.2)" id="svg_8" height="28.3" width="21.9" y="455" x="258" fill="#000000"/>
        <rect id="svg_6" height="62.9" width="37.1" y="414.1" x="263.8" fill="#000000"/>
        <ellipse ry="20.2" rx="20.2" id="svg_4" cy="478.2" cx="281" fill="#000000"/>
        <ellipse ry="50" rx="50" id="svg_2" cy="414.7" cx="251.1" fill="#000000"/>
    </g>
</svg>